<svg width="16" height="16" viewBox="0 0 16 16" fill="none" xmlns="http://www.w3.org/2000/svg">
    <path opacity="0.8" d="M4.01391 9.75279C5.68286 9.75279 7.03581 8.39984 7.03581 6.73089C7.03581 5.06194 5.68286 3.70898 4.01391 3.70898C2.34496 3.70898 0.992004 5.06194 0.992004 6.73089C0.992004 8.39984 2.34496 9.75279 4.01391 9.75279Z" fill="#6A11CB"/>
    <path opacity="0.9" d="M9.0172 8.15586C10.6862 8.15586 12.0391 6.80291 12.0391 5.13396C12.0391 3.46501 10.6862 2.11206 9.0172 2.11206C7.34825 2.11206 5.9953 3.46501 5.9953 5.13396C5.9953 6.80291 7.34825 8.15586 9.0172 8.15586Z" fill="#6A11CB"/>
    <path opacity="0.7" d="M7.10106 13.9044C8.77001 13.9044 10.123 12.5514 10.123 10.8825C10.123 9.21355 8.77001 7.8606 7.10106 7.8606C5.43211 7.8606 4.07916 9.21355 4.07916 10.8825C4.07916 12.5514 5.43211 13.9044 7.10106 13.9044Z" fill="#6A11CB"/>
    <path opacity="0.85" d="M11.9979 12.4139C13.6669 12.4139 15.0198 11.061 15.0198 9.39202C15.0198 7.72307 13.6669 6.37012 11.9979 6.37012C10.329 6.37012 8.97601 7.72307 8.97601 9.39202C8.97601 11.061 10.329 12.4139 11.9979 12.4139Z" fill="#6A11CB"/>
</svg>